<mxfile host="app.diagrams.net" modified="2022-03-18T16:41:35.668Z" agent="5.0 (Windows NT 10.0; Win64; x64) AppleWebKit/537.36 (KHTML, like Gecko) Chrome/98.0.4758.109 Safari/537.36 OPR/84.0.4316.31" etag="p0MJfbCSBXjcheTrEO8h" version="17.1.2" type="github">
  <diagram id="C5RBs43oDa-KdzZeNtuy" name="Page-1">
    <mxGraphModel dx="1534" dy="417" grid="1" gridSize="10" guides="1" tooltips="1" connect="1" arrows="1" fold="1" page="1" pageScale="1" pageWidth="827" pageHeight="1169" math="0" shadow="0">
      <root>
        <mxCell id="WIyWlLk6GJQsqaUBKTNV-0" />
        <mxCell id="WIyWlLk6GJQsqaUBKTNV-1" parent="WIyWlLk6GJQsqaUBKTNV-0" />
        <mxCell id="1yajqlo2JNDMy205WkG5-65" style="edgeStyle=none;rounded=0;orthogonalLoop=1;jettySize=auto;html=1;exitX=1;exitY=0.5;exitDx=0;exitDy=0;entryX=0;entryY=0.5;entryDx=0;entryDy=0;startArrow=none;startFill=0;endArrow=none;endFill=0;" edge="1" parent="WIyWlLk6GJQsqaUBKTNV-1" source="zkfFHV4jXpPFQw0GAbJ--0" target="1yajqlo2JNDMy205WkG5-8">
          <mxGeometry relative="1" as="geometry">
            <Array as="points">
              <mxPoint x="230" y="393" />
            </Array>
          </mxGeometry>
        </mxCell>
        <mxCell id="1yajqlo2JNDMy205WkG5-80" value="Tiene-&amp;gt;" style="edgeLabel;html=1;align=center;verticalAlign=middle;resizable=0;points=[];" vertex="1" connectable="0" parent="1yajqlo2JNDMy205WkG5-65">
          <mxGeometry x="-0.102" y="-1" relative="1" as="geometry">
            <mxPoint x="3" y="-14" as="offset" />
          </mxGeometry>
        </mxCell>
        <mxCell id="1yajqlo2JNDMy205WkG5-81" value="&amp;lt;- pertenece" style="edgeLabel;html=1;align=center;verticalAlign=middle;resizable=0;points=[];" vertex="1" connectable="0" parent="1yajqlo2JNDMy205WkG5-65">
          <mxGeometry x="-0.0751" relative="1" as="geometry">
            <mxPoint x="-9" y="7" as="offset" />
          </mxGeometry>
        </mxCell>
        <mxCell id="1yajqlo2JNDMy205WkG5-82" value="1..*" style="edgeLabel;html=1;align=center;verticalAlign=middle;resizable=0;points=[];" vertex="1" connectable="0" parent="1yajqlo2JNDMy205WkG5-65">
          <mxGeometry x="0.7989" relative="1" as="geometry">
            <mxPoint x="7" y="-13" as="offset" />
          </mxGeometry>
        </mxCell>
        <mxCell id="1yajqlo2JNDMy205WkG5-83" value="1" style="edgeLabel;html=1;align=center;verticalAlign=middle;resizable=0;points=[];" vertex="1" connectable="0" parent="1yajqlo2JNDMy205WkG5-65">
          <mxGeometry x="-0.9087" y="1" relative="1" as="geometry">
            <mxPoint y="8" as="offset" />
          </mxGeometry>
        </mxCell>
        <mxCell id="zkfFHV4jXpPFQw0GAbJ--0" value="Cine" style="swimlane;fontStyle=2;align=center;verticalAlign=top;childLayout=stackLayout;horizontal=1;startSize=26;horizontalStack=0;resizeParent=1;resizeLast=0;collapsible=1;marginBottom=0;rounded=0;shadow=0;strokeWidth=1;" parent="WIyWlLk6GJQsqaUBKTNV-1" vertex="1" collapsed="1">
          <mxGeometry x="-10" y="380" width="160" height="26" as="geometry">
            <mxRectangle x="300" y="150" width="110" height="40" as="alternateBounds" />
          </mxGeometry>
        </mxCell>
        <mxCell id="zkfFHV4jXpPFQw0GAbJ--4" value="" style="line;html=1;strokeWidth=1;align=left;verticalAlign=middle;spacingTop=-1;spacingLeft=3;spacingRight=3;rotatable=0;labelPosition=right;points=[];portConstraint=eastwest;" parent="zkfFHV4jXpPFQw0GAbJ--0" vertex="1">
          <mxGeometry y="26" width="110" height="8" as="geometry" />
        </mxCell>
        <mxCell id="1yajqlo2JNDMy205WkG5-62" style="edgeStyle=none;rounded=0;orthogonalLoop=1;jettySize=auto;html=1;exitX=1;exitY=0.5;exitDx=0;exitDy=0;entryX=0;entryY=0.5;entryDx=0;entryDy=0;endArrow=none;endFill=0;startArrow=none;startFill=0;" edge="1" parent="WIyWlLk6GJQsqaUBKTNV-1" source="1yajqlo2JNDMy205WkG5-2" target="1yajqlo2JNDMy205WkG5-4">
          <mxGeometry relative="1" as="geometry" />
        </mxCell>
        <mxCell id="1yajqlo2JNDMy205WkG5-67" value="Tiene -&amp;gt;" style="edgeLabel;html=1;align=center;verticalAlign=middle;resizable=0;points=[];" vertex="1" connectable="0" parent="1yajqlo2JNDMy205WkG5-62">
          <mxGeometry x="-0.1042" y="-1" relative="1" as="geometry">
            <mxPoint x="9" y="-14" as="offset" />
          </mxGeometry>
        </mxCell>
        <mxCell id="1yajqlo2JNDMy205WkG5-69" value="1...*" style="edgeLabel;html=1;align=center;verticalAlign=middle;resizable=0;points=[];" vertex="1" connectable="0" parent="1yajqlo2JNDMy205WkG5-62">
          <mxGeometry x="0.918" y="1" relative="1" as="geometry">
            <mxPoint x="-3" y="-12" as="offset" />
          </mxGeometry>
        </mxCell>
        <mxCell id="1yajqlo2JNDMy205WkG5-70" value="1" style="edgeLabel;html=1;align=center;verticalAlign=middle;resizable=0;points=[];" vertex="1" connectable="0" parent="1yajqlo2JNDMy205WkG5-62">
          <mxGeometry x="-0.8915" y="-1" relative="1" as="geometry">
            <mxPoint y="6" as="offset" />
          </mxGeometry>
        </mxCell>
        <mxCell id="1yajqlo2JNDMy205WkG5-71" value="&amp;lt;- Hace parte" style="edgeLabel;html=1;align=center;verticalAlign=middle;resizable=0;points=[];" vertex="1" connectable="0" parent="1yajqlo2JNDMy205WkG5-62">
          <mxGeometry x="-0.0788" y="-2" relative="1" as="geometry">
            <mxPoint y="5" as="offset" />
          </mxGeometry>
        </mxCell>
        <mxCell id="1yajqlo2JNDMy205WkG5-2" value="Pais" style="swimlane;fontStyle=2;align=center;verticalAlign=top;childLayout=stackLayout;horizontal=1;startSize=26;horizontalStack=0;resizeParent=1;resizeLast=0;collapsible=1;marginBottom=0;rounded=0;shadow=0;strokeWidth=1;" vertex="1" collapsed="1" parent="WIyWlLk6GJQsqaUBKTNV-1">
          <mxGeometry x="-20" y="40" width="160" height="26" as="geometry">
            <mxRectangle x="-20" y="40" width="140" height="40" as="alternateBounds" />
          </mxGeometry>
        </mxCell>
        <mxCell id="1yajqlo2JNDMy205WkG5-3" value="" style="line;html=1;strokeWidth=1;align=left;verticalAlign=middle;spacingTop=-1;spacingLeft=3;spacingRight=3;rotatable=0;labelPosition=right;points=[];portConstraint=eastwest;" vertex="1" parent="1yajqlo2JNDMy205WkG5-2">
          <mxGeometry y="26" width="140" height="8" as="geometry" />
        </mxCell>
        <mxCell id="1yajqlo2JNDMy205WkG5-63" style="edgeStyle=none;rounded=0;orthogonalLoop=1;jettySize=auto;html=1;exitX=0.5;exitY=1;exitDx=0;exitDy=0;entryX=0.5;entryY=0;entryDx=0;entryDy=0;startArrow=none;startFill=0;endArrow=none;endFill=0;" edge="1" parent="WIyWlLk6GJQsqaUBKTNV-1" source="1yajqlo2JNDMy205WkG5-4" target="1yajqlo2JNDMy205WkG5-6">
          <mxGeometry relative="1" as="geometry" />
        </mxCell>
        <mxCell id="1yajqlo2JNDMy205WkG5-72" value="Tiene-&amp;gt;" style="edgeLabel;html=1;align=center;verticalAlign=middle;resizable=0;points=[];rotation=90;" vertex="1" connectable="0" parent="1yajqlo2JNDMy205WkG5-63">
          <mxGeometry x="-0.1218" relative="1" as="geometry">
            <mxPoint x="14" as="offset" />
          </mxGeometry>
        </mxCell>
        <mxCell id="1yajqlo2JNDMy205WkG5-73" value="&amp;lt;-hace parte" style="edgeLabel;html=1;align=center;verticalAlign=middle;resizable=0;points=[];rotation=90;" vertex="1" connectable="0" parent="1yajqlo2JNDMy205WkG5-63">
          <mxGeometry x="-0.1293" relative="1" as="geometry">
            <mxPoint x="-10" as="offset" />
          </mxGeometry>
        </mxCell>
        <mxCell id="1yajqlo2JNDMy205WkG5-74" value="1" style="edgeLabel;html=1;align=center;verticalAlign=middle;resizable=0;points=[];rotation=90;" vertex="1" connectable="0" parent="1yajqlo2JNDMy205WkG5-63">
          <mxGeometry x="-0.9085" y="-1" relative="1" as="geometry">
            <mxPoint x="-9" as="offset" />
          </mxGeometry>
        </mxCell>
        <mxCell id="1yajqlo2JNDMy205WkG5-75" value="1...*" style="edgeLabel;html=1;align=center;verticalAlign=middle;resizable=0;points=[];rotation=90;" vertex="1" connectable="0" parent="1yajqlo2JNDMy205WkG5-63">
          <mxGeometry x="0.9097" y="-1" relative="1" as="geometry">
            <mxPoint x="15" y="-13" as="offset" />
          </mxGeometry>
        </mxCell>
        <mxCell id="1yajqlo2JNDMy205WkG5-4" value="Departamento" style="swimlane;fontStyle=2;align=center;verticalAlign=top;childLayout=stackLayout;horizontal=1;startSize=26;horizontalStack=0;resizeParent=1;resizeLast=0;collapsible=1;marginBottom=0;rounded=0;shadow=0;strokeWidth=1;" vertex="1" collapsed="1" parent="WIyWlLk6GJQsqaUBKTNV-1">
          <mxGeometry x="320" y="40" width="160" height="26" as="geometry">
            <mxRectangle x="290" y="40" width="130" height="40" as="alternateBounds" />
          </mxGeometry>
        </mxCell>
        <mxCell id="1yajqlo2JNDMy205WkG5-5" value="" style="line;html=1;strokeWidth=1;align=left;verticalAlign=middle;spacingTop=-1;spacingLeft=3;spacingRight=3;rotatable=0;labelPosition=right;points=[];portConstraint=eastwest;" vertex="1" parent="1yajqlo2JNDMy205WkG5-4">
          <mxGeometry y="26" width="130" height="8" as="geometry" />
        </mxCell>
        <mxCell id="1yajqlo2JNDMy205WkG5-64" style="edgeStyle=none;rounded=0;orthogonalLoop=1;jettySize=auto;html=1;exitX=0.5;exitY=1;exitDx=0;exitDy=0;startArrow=none;startFill=0;endArrow=none;endFill=0;" edge="1" parent="WIyWlLk6GJQsqaUBKTNV-1" source="1yajqlo2JNDMy205WkG5-6" target="1yajqlo2JNDMy205WkG5-8">
          <mxGeometry relative="1" as="geometry">
            <Array as="points">
              <mxPoint x="400" y="310" />
            </Array>
          </mxGeometry>
        </mxCell>
        <mxCell id="1yajqlo2JNDMy205WkG5-76" value="Tiene-&amp;gt;" style="edgeLabel;html=1;align=center;verticalAlign=middle;resizable=0;points=[];rotation=90;" vertex="1" connectable="0" parent="1yajqlo2JNDMy205WkG5-64">
          <mxGeometry x="0.2139" y="2" relative="1" as="geometry">
            <mxPoint x="12" y="-17" as="offset" />
          </mxGeometry>
        </mxCell>
        <mxCell id="1yajqlo2JNDMy205WkG5-77" value="&amp;lt;-Esta ubicado" style="edgeLabel;html=1;align=center;verticalAlign=middle;resizable=0;points=[];rotation=90;" vertex="1" connectable="0" parent="1yajqlo2JNDMy205WkG5-64">
          <mxGeometry x="0.231" y="1" relative="1" as="geometry">
            <mxPoint x="-11" y="-18" as="offset" />
          </mxGeometry>
        </mxCell>
        <mxCell id="1yajqlo2JNDMy205WkG5-78" value="1" style="edgeLabel;html=1;align=center;verticalAlign=middle;resizable=0;points=[];rotation=90;" vertex="1" connectable="0" parent="1yajqlo2JNDMy205WkG5-64">
          <mxGeometry x="-0.8436" relative="1" as="geometry">
            <mxPoint x="-10" as="offset" />
          </mxGeometry>
        </mxCell>
        <mxCell id="1yajqlo2JNDMy205WkG5-79" value="0..*" style="edgeLabel;html=1;align=center;verticalAlign=middle;resizable=0;points=[];rotation=90;" vertex="1" connectable="0" parent="1yajqlo2JNDMy205WkG5-64">
          <mxGeometry x="0.8877" relative="1" as="geometry">
            <mxPoint x="10" y="-3" as="offset" />
          </mxGeometry>
        </mxCell>
        <mxCell id="1yajqlo2JNDMy205WkG5-6" value="Ciudad" style="swimlane;fontStyle=2;align=center;verticalAlign=top;childLayout=stackLayout;horizontal=1;startSize=26;horizontalStack=0;resizeParent=1;resizeLast=0;collapsible=1;marginBottom=0;rounded=0;shadow=0;strokeWidth=1;" vertex="1" collapsed="1" parent="WIyWlLk6GJQsqaUBKTNV-1">
          <mxGeometry x="320" y="220" width="160" height="26" as="geometry">
            <mxRectangle x="590" y="40" width="130" height="40" as="alternateBounds" />
          </mxGeometry>
        </mxCell>
        <mxCell id="1yajqlo2JNDMy205WkG5-7" value="" style="line;html=1;strokeWidth=1;align=left;verticalAlign=middle;spacingTop=-1;spacingLeft=3;spacingRight=3;rotatable=0;labelPosition=right;points=[];portConstraint=eastwest;" vertex="1" parent="1yajqlo2JNDMy205WkG5-6">
          <mxGeometry y="26" width="130" height="8" as="geometry" />
        </mxCell>
        <mxCell id="1yajqlo2JNDMy205WkG5-66" style="edgeStyle=none;rounded=0;orthogonalLoop=1;jettySize=auto;html=1;exitX=1;exitY=0.5;exitDx=0;exitDy=0;entryX=0;entryY=0.5;entryDx=0;entryDy=0;startArrow=none;startFill=0;endArrow=none;endFill=0;" edge="1" parent="WIyWlLk6GJQsqaUBKTNV-1" source="1yajqlo2JNDMy205WkG5-8" target="1yajqlo2JNDMy205WkG5-18">
          <mxGeometry relative="1" as="geometry">
            <Array as="points" />
          </mxGeometry>
        </mxCell>
        <mxCell id="1yajqlo2JNDMy205WkG5-84" value="&amp;lt;-Esta asignada" style="edgeLabel;html=1;align=center;verticalAlign=middle;resizable=0;points=[];" vertex="1" connectable="0" parent="1yajqlo2JNDMy205WkG5-66">
          <mxGeometry x="0.13" y="-1" relative="1" as="geometry">
            <mxPoint x="-6" y="12" as="offset" />
          </mxGeometry>
        </mxCell>
        <mxCell id="1yajqlo2JNDMy205WkG5-85" value="Tiene -&amp;gt;" style="edgeLabel;html=1;align=center;verticalAlign=middle;resizable=0;points=[];" vertex="1" connectable="0" parent="1yajqlo2JNDMy205WkG5-66">
          <mxGeometry x="-0.0784" y="1" relative="1" as="geometry">
            <mxPoint x="12" y="-12" as="offset" />
          </mxGeometry>
        </mxCell>
        <mxCell id="1yajqlo2JNDMy205WkG5-86" value="1" style="edgeLabel;html=1;align=center;verticalAlign=middle;resizable=0;points=[];" vertex="1" connectable="0" parent="1yajqlo2JNDMy205WkG5-66">
          <mxGeometry x="-0.7305" y="1" relative="1" as="geometry">
            <mxPoint x="-13" y="8" as="offset" />
          </mxGeometry>
        </mxCell>
        <mxCell id="1yajqlo2JNDMy205WkG5-87" value="1...*" style="edgeLabel;html=1;align=center;verticalAlign=middle;resizable=0;points=[];" vertex="1" connectable="0" parent="1yajqlo2JNDMy205WkG5-66">
          <mxGeometry x="0.856" y="-1" relative="1" as="geometry">
            <mxPoint y="-14" as="offset" />
          </mxGeometry>
        </mxCell>
        <mxCell id="1yajqlo2JNDMy205WkG5-8" value="Sede" style="swimlane;fontStyle=2;align=center;verticalAlign=top;childLayout=stackLayout;horizontal=1;startSize=26;horizontalStack=0;resizeParent=1;resizeLast=0;collapsible=1;marginBottom=0;rounded=0;shadow=0;strokeWidth=1;" vertex="1" collapsed="1" parent="WIyWlLk6GJQsqaUBKTNV-1">
          <mxGeometry x="320" y="380" width="160" height="26" as="geometry">
            <mxRectangle x="600" y="150" width="110" height="40" as="alternateBounds" />
          </mxGeometry>
        </mxCell>
        <mxCell id="1yajqlo2JNDMy205WkG5-9" value="" style="line;html=1;strokeWidth=1;align=left;verticalAlign=middle;spacingTop=-1;spacingLeft=3;spacingRight=3;rotatable=0;labelPosition=right;points=[];portConstraint=eastwest;" vertex="1" parent="1yajqlo2JNDMy205WkG5-8">
          <mxGeometry y="26" width="110" height="8" as="geometry" />
        </mxCell>
        <mxCell id="1yajqlo2JNDMy205WkG5-88" style="edgeStyle=none;rounded=0;orthogonalLoop=1;jettySize=auto;html=1;exitX=0.5;exitY=0;exitDx=0;exitDy=0;startArrow=none;startFill=0;endArrow=none;endFill=0;entryX=0.25;entryY=1;entryDx=0;entryDy=0;" edge="1" parent="WIyWlLk6GJQsqaUBKTNV-1" source="1yajqlo2JNDMy205WkG5-18" target="1yajqlo2JNDMy205WkG5-34">
          <mxGeometry relative="1" as="geometry">
            <mxPoint x="730" y="180" as="targetPoint" />
          </mxGeometry>
        </mxCell>
        <mxCell id="1yajqlo2JNDMy205WkG5-98" value="Tiene-&amp;gt;" style="edgeLabel;html=1;align=center;verticalAlign=middle;resizable=0;points=[];rotation=-90;" vertex="1" connectable="0" parent="1yajqlo2JNDMy205WkG5-88">
          <mxGeometry x="-0.0698" relative="1" as="geometry">
            <mxPoint x="-10" y="-12" as="offset" />
          </mxGeometry>
        </mxCell>
        <mxCell id="1yajqlo2JNDMy205WkG5-99" value="Accede a -&amp;gt;" style="edgeLabel;html=1;align=center;verticalAlign=middle;resizable=0;points=[];rotation=90;" vertex="1" connectable="0" parent="1yajqlo2JNDMy205WkG5-88">
          <mxGeometry x="0.3757" relative="1" as="geometry">
            <mxPoint x="10" y="41" as="offset" />
          </mxGeometry>
        </mxCell>
        <mxCell id="1yajqlo2JNDMy205WkG5-100" value="0...*" style="edgeLabel;html=1;align=center;verticalAlign=middle;resizable=0;points=[];rotation=90;" vertex="1" connectable="0" parent="1yajqlo2JNDMy205WkG5-88">
          <mxGeometry x="0.9041" y="2" relative="1" as="geometry">
            <mxPoint x="-8" as="offset" />
          </mxGeometry>
        </mxCell>
        <mxCell id="1yajqlo2JNDMy205WkG5-101" value="1" style="edgeLabel;html=1;align=center;verticalAlign=middle;resizable=0;points=[];rotation=90;" vertex="1" connectable="0" parent="1yajqlo2JNDMy205WkG5-88">
          <mxGeometry x="-0.9296" relative="1" as="geometry">
            <mxPoint x="10" as="offset" />
          </mxGeometry>
        </mxCell>
        <mxCell id="1yajqlo2JNDMy205WkG5-89" style="edgeStyle=orthogonalEdgeStyle;rounded=0;orthogonalLoop=1;jettySize=auto;html=1;exitX=0.75;exitY=0;exitDx=0;exitDy=0;entryX=0.5;entryY=1;entryDx=0;entryDy=0;startArrow=none;startFill=0;endArrow=none;endFill=0;jumpStyle=arc;" edge="1" parent="WIyWlLk6GJQsqaUBKTNV-1" source="1yajqlo2JNDMy205WkG5-18" target="1yajqlo2JNDMy205WkG5-36">
          <mxGeometry relative="1" as="geometry" />
        </mxCell>
        <mxCell id="1yajqlo2JNDMy205WkG5-107" value="&amp;lt;- Se genera a&amp;nbsp;" style="edgeLabel;html=1;align=center;verticalAlign=middle;resizable=0;points=[];" vertex="1" connectable="0" parent="1yajqlo2JNDMy205WkG5-89">
          <mxGeometry x="0.038" relative="1" as="geometry">
            <mxPoint x="-14" y="14" as="offset" />
          </mxGeometry>
        </mxCell>
        <mxCell id="1yajqlo2JNDMy205WkG5-109" value="Tiene-&amp;gt;" style="edgeLabel;html=1;align=center;verticalAlign=middle;resizable=0;points=[];" vertex="1" connectable="0" parent="1yajqlo2JNDMy205WkG5-89">
          <mxGeometry x="-0.0401" relative="1" as="geometry">
            <mxPoint x="3" y="-16" as="offset" />
          </mxGeometry>
        </mxCell>
        <mxCell id="1yajqlo2JNDMy205WkG5-110" value="1" style="edgeLabel;html=1;align=center;verticalAlign=middle;resizable=0;points=[];rotation=90;" vertex="1" connectable="0" parent="1yajqlo2JNDMy205WkG5-89">
          <mxGeometry x="-0.9462" y="-1" relative="1" as="geometry">
            <mxPoint x="9" y="2" as="offset" />
          </mxGeometry>
        </mxCell>
        <mxCell id="1yajqlo2JNDMy205WkG5-111" value="0...*" style="edgeLabel;html=1;align=center;verticalAlign=middle;resizable=0;points=[];rotation=90;" vertex="1" connectable="0" parent="1yajqlo2JNDMy205WkG5-89">
          <mxGeometry x="0.9606" y="1" relative="1" as="geometry">
            <mxPoint x="-10" as="offset" />
          </mxGeometry>
        </mxCell>
        <mxCell id="1yajqlo2JNDMy205WkG5-92" style="edgeStyle=orthogonalEdgeStyle;rounded=0;jumpStyle=arc;orthogonalLoop=1;jettySize=auto;html=1;exitX=1;exitY=0.5;exitDx=0;exitDy=0;startArrow=none;startFill=0;endArrow=none;endFill=0;entryX=0;entryY=0.5;entryDx=0;entryDy=0;" edge="1" parent="WIyWlLk6GJQsqaUBKTNV-1" source="1yajqlo2JNDMy205WkG5-18" target="1yajqlo2JNDMy205WkG5-59">
          <mxGeometry relative="1" as="geometry">
            <mxPoint x="1359.9999999999995" y="392.57142857142867" as="targetPoint" />
          </mxGeometry>
        </mxCell>
        <mxCell id="1yajqlo2JNDMy205WkG5-122" value="Tiene -&amp;gt;" style="edgeLabel;html=1;align=center;verticalAlign=middle;resizable=0;points=[];" vertex="1" connectable="0" parent="1yajqlo2JNDMy205WkG5-92">
          <mxGeometry x="-0.1087" y="1" relative="1" as="geometry">
            <mxPoint x="-10" y="-12" as="offset" />
          </mxGeometry>
        </mxCell>
        <mxCell id="1yajqlo2JNDMy205WkG5-124" value="&amp;lt;- Hace parte" style="edgeLabel;html=1;align=center;verticalAlign=middle;resizable=0;points=[];" vertex="1" connectable="0" parent="1yajqlo2JNDMy205WkG5-92">
          <mxGeometry x="-0.1606" y="-1" relative="1" as="geometry">
            <mxPoint y="6" as="offset" />
          </mxGeometry>
        </mxCell>
        <mxCell id="1yajqlo2JNDMy205WkG5-125" value="1" style="edgeLabel;html=1;align=center;verticalAlign=middle;resizable=0;points=[];" vertex="1" connectable="0" parent="1yajqlo2JNDMy205WkG5-92">
          <mxGeometry x="-0.9197" y="-2" relative="1" as="geometry">
            <mxPoint x="-12" y="5" as="offset" />
          </mxGeometry>
        </mxCell>
        <mxCell id="1yajqlo2JNDMy205WkG5-126" value="1...*" style="edgeLabel;html=1;align=center;verticalAlign=middle;resizable=0;points=[];" vertex="1" connectable="0" parent="1yajqlo2JNDMy205WkG5-92">
          <mxGeometry x="0.962" y="1" relative="1" as="geometry">
            <mxPoint x="-9" y="-12" as="offset" />
          </mxGeometry>
        </mxCell>
        <mxCell id="1yajqlo2JNDMy205WkG5-18" value="Tienda" style="swimlane;fontStyle=2;align=center;verticalAlign=top;childLayout=stackLayout;horizontal=1;startSize=26;horizontalStack=0;resizeParent=1;resizeLast=0;collapsible=1;marginBottom=0;rounded=0;shadow=0;strokeWidth=1;" vertex="1" collapsed="1" parent="WIyWlLk6GJQsqaUBKTNV-1">
          <mxGeometry x="650" y="380" width="160" height="26" as="geometry">
            <mxRectangle x="840" y="160" width="110" height="40" as="alternateBounds" />
          </mxGeometry>
        </mxCell>
        <mxCell id="1yajqlo2JNDMy205WkG5-19" value="" style="line;html=1;strokeWidth=1;align=left;verticalAlign=middle;spacingTop=-1;spacingLeft=3;spacingRight=3;rotatable=0;labelPosition=right;points=[];portConstraint=eastwest;" vertex="1" parent="1yajqlo2JNDMy205WkG5-18">
          <mxGeometry y="26" width="110" height="8" as="geometry" />
        </mxCell>
        <mxCell id="1yajqlo2JNDMy205WkG5-181" style="edgeStyle=orthogonalEdgeStyle;rounded=0;jumpStyle=arc;orthogonalLoop=1;jettySize=auto;html=1;exitX=1;exitY=0.5;exitDx=0;exitDy=0;entryX=0;entryY=0.5;entryDx=0;entryDy=0;startArrow=none;startFill=0;endArrow=none;endFill=0;" edge="1" parent="WIyWlLk6GJQsqaUBKTNV-1" source="1yajqlo2JNDMy205WkG5-20" target="1yajqlo2JNDMy205WkG5-32">
          <mxGeometry relative="1" as="geometry" />
        </mxCell>
        <mxCell id="1yajqlo2JNDMy205WkG5-182" value="&amp;lt;- Esta asociada&amp;nbsp;" style="edgeLabel;html=1;align=center;verticalAlign=middle;resizable=0;points=[];" vertex="1" connectable="0" parent="1yajqlo2JNDMy205WkG5-181">
          <mxGeometry x="0.1826" relative="1" as="geometry">
            <mxPoint x="-22" y="12" as="offset" />
          </mxGeometry>
        </mxCell>
        <mxCell id="1yajqlo2JNDMy205WkG5-183" value="Pertenece -&amp;gt;" style="edgeLabel;html=1;align=center;verticalAlign=middle;resizable=0;points=[];" vertex="1" connectable="0" parent="1yajqlo2JNDMy205WkG5-181">
          <mxGeometry x="-0.2585" y="-3" relative="1" as="geometry">
            <mxPoint x="20" y="-16" as="offset" />
          </mxGeometry>
        </mxCell>
        <mxCell id="1yajqlo2JNDMy205WkG5-184" value="1" style="edgeLabel;html=1;align=center;verticalAlign=middle;resizable=0;points=[];" vertex="1" connectable="0" parent="1yajqlo2JNDMy205WkG5-181">
          <mxGeometry x="0.8343" relative="1" as="geometry">
            <mxPoint y="-13" as="offset" />
          </mxGeometry>
        </mxCell>
        <mxCell id="1yajqlo2JNDMy205WkG5-185" value="0...*" style="edgeLabel;html=1;align=center;verticalAlign=middle;resizable=0;points=[];" vertex="1" connectable="0" parent="1yajqlo2JNDMy205WkG5-181">
          <mxGeometry x="-0.87" y="-2" relative="1" as="geometry">
            <mxPoint as="offset" />
          </mxGeometry>
        </mxCell>
        <mxCell id="1yajqlo2JNDMy205WkG5-20" value="Tiquete" style="swimlane;fontStyle=2;align=center;verticalAlign=top;childLayout=stackLayout;horizontal=1;startSize=26;horizontalStack=0;resizeParent=1;resizeLast=0;collapsible=1;marginBottom=0;rounded=0;shadow=0;strokeWidth=1;" vertex="1" collapsed="1" parent="WIyWlLk6GJQsqaUBKTNV-1">
          <mxGeometry x="1020" y="585" width="160" height="26" as="geometry">
            <mxRectangle x="840" y="160" width="110" height="40" as="alternateBounds" />
          </mxGeometry>
        </mxCell>
        <mxCell id="1yajqlo2JNDMy205WkG5-21" value="" style="line;html=1;strokeWidth=1;align=left;verticalAlign=middle;spacingTop=-1;spacingLeft=3;spacingRight=3;rotatable=0;labelPosition=right;points=[];portConstraint=eastwest;" vertex="1" parent="1yajqlo2JNDMy205WkG5-20">
          <mxGeometry y="26" width="110" height="8" as="geometry" />
        </mxCell>
        <mxCell id="1yajqlo2JNDMy205WkG5-132" style="edgeStyle=orthogonalEdgeStyle;rounded=0;jumpStyle=arc;orthogonalLoop=1;jettySize=auto;html=1;exitX=1;exitY=0.5;exitDx=0;exitDy=0;entryX=0;entryY=0.5;entryDx=0;entryDy=0;startArrow=none;startFill=0;endArrow=none;endFill=0;" edge="1" parent="WIyWlLk6GJQsqaUBKTNV-1" source="1yajqlo2JNDMy205WkG5-22" target="1yajqlo2JNDMy205WkG5-30">
          <mxGeometry relative="1" as="geometry">
            <Array as="points">
              <mxPoint x="550" y="598" />
              <mxPoint x="550" y="598" />
            </Array>
          </mxGeometry>
        </mxCell>
        <mxCell id="1yajqlo2JNDMy205WkG5-145" value="&amp;lt;- Vende&amp;nbsp;" style="edgeLabel;html=1;align=center;verticalAlign=middle;resizable=0;points=[];" vertex="1" connectable="0" parent="1yajqlo2JNDMy205WkG5-132">
          <mxGeometry x="0.197" y="-1" relative="1" as="geometry">
            <mxPoint x="-16" y="-9" as="offset" />
          </mxGeometry>
        </mxCell>
        <mxCell id="1yajqlo2JNDMy205WkG5-146" value="Se despacha -&amp;gt;" style="edgeLabel;html=1;align=center;verticalAlign=middle;resizable=0;points=[];" vertex="1" connectable="0" parent="1yajqlo2JNDMy205WkG5-132">
          <mxGeometry x="-0.2668" y="-1" relative="1" as="geometry">
            <mxPoint x="33" y="11" as="offset" />
          </mxGeometry>
        </mxCell>
        <mxCell id="1yajqlo2JNDMy205WkG5-149" value="0...*" style="edgeLabel;html=1;align=center;verticalAlign=middle;resizable=0;points=[];" vertex="1" connectable="0" parent="1yajqlo2JNDMy205WkG5-132">
          <mxGeometry x="-0.8686" y="2" relative="1" as="geometry">
            <mxPoint y="-12" as="offset" />
          </mxGeometry>
        </mxCell>
        <mxCell id="1yajqlo2JNDMy205WkG5-150" value="1" style="edgeLabel;html=1;align=center;verticalAlign=middle;resizable=0;points=[];" vertex="1" connectable="0" parent="1yajqlo2JNDMy205WkG5-132">
          <mxGeometry x="0.854" y="1" relative="1" as="geometry">
            <mxPoint y="13" as="offset" />
          </mxGeometry>
        </mxCell>
        <mxCell id="1yajqlo2JNDMy205WkG5-133" style="edgeStyle=orthogonalEdgeStyle;rounded=0;jumpStyle=arc;orthogonalLoop=1;jettySize=auto;html=1;exitX=0.5;exitY=1;exitDx=0;exitDy=0;entryX=0.5;entryY=0;entryDx=0;entryDy=0;startArrow=none;startFill=0;endArrow=none;endFill=0;" edge="1" parent="WIyWlLk6GJQsqaUBKTNV-1" source="1yajqlo2JNDMy205WkG5-22" target="1yajqlo2JNDMy205WkG5-38">
          <mxGeometry relative="1" as="geometry" />
        </mxCell>
        <mxCell id="1yajqlo2JNDMy205WkG5-151" value="Tiene -&amp;gt;" style="edgeLabel;html=1;align=center;verticalAlign=middle;resizable=0;points=[];rotation=90;" vertex="1" connectable="0" parent="1yajqlo2JNDMy205WkG5-133">
          <mxGeometry x="0.1107" y="2" relative="1" as="geometry">
            <mxPoint x="8" y="-13" as="offset" />
          </mxGeometry>
        </mxCell>
        <mxCell id="1yajqlo2JNDMy205WkG5-152" value="Pertenece a -&amp;gt;" style="edgeLabel;html=1;align=center;verticalAlign=middle;resizable=0;points=[];rotation=-90;" vertex="1" connectable="0" parent="1yajqlo2JNDMy205WkG5-133">
          <mxGeometry x="0.2695" relative="1" as="geometry">
            <mxPoint x="-10" y="-30" as="offset" />
          </mxGeometry>
        </mxCell>
        <mxCell id="1yajqlo2JNDMy205WkG5-153" value="1" style="edgeLabel;html=1;align=center;verticalAlign=middle;resizable=0;points=[];rotation=90;" vertex="1" connectable="0" parent="1yajqlo2JNDMy205WkG5-133">
          <mxGeometry x="-0.874" y="-2" relative="1" as="geometry">
            <mxPoint x="-8" as="offset" />
          </mxGeometry>
        </mxCell>
        <mxCell id="1yajqlo2JNDMy205WkG5-154" value="0...*" style="edgeLabel;html=1;align=center;verticalAlign=middle;resizable=0;points=[];rotation=90;" vertex="1" connectable="0" parent="1yajqlo2JNDMy205WkG5-133">
          <mxGeometry x="0.889" y="2" relative="1" as="geometry">
            <mxPoint x="8" y="-8" as="offset" />
          </mxGeometry>
        </mxCell>
        <mxCell id="1yajqlo2JNDMy205WkG5-22" value="Mecato" style="swimlane;fontStyle=2;align=center;verticalAlign=top;childLayout=stackLayout;horizontal=1;startSize=26;horizontalStack=0;resizeParent=1;resizeLast=0;collapsible=1;marginBottom=0;rounded=0;shadow=0;strokeWidth=1;" vertex="1" collapsed="1" parent="WIyWlLk6GJQsqaUBKTNV-1">
          <mxGeometry x="280" y="585" width="160" height="26" as="geometry">
            <mxRectangle x="840" y="160" width="110" height="40" as="alternateBounds" />
          </mxGeometry>
        </mxCell>
        <mxCell id="1yajqlo2JNDMy205WkG5-23" value="" style="line;html=1;strokeWidth=1;align=left;verticalAlign=middle;spacingTop=-1;spacingLeft=3;spacingRight=3;rotatable=0;labelPosition=right;points=[];portConstraint=eastwest;" vertex="1" parent="1yajqlo2JNDMy205WkG5-22">
          <mxGeometry y="26" width="110" height="8" as="geometry" />
        </mxCell>
        <mxCell id="1yajqlo2JNDMy205WkG5-140" style="edgeStyle=orthogonalEdgeStyle;rounded=0;jumpStyle=arc;orthogonalLoop=1;jettySize=auto;html=1;exitX=0.5;exitY=1;exitDx=0;exitDy=0;entryX=0.5;entryY=0;entryDx=0;entryDy=0;startArrow=none;startFill=0;endArrow=none;endFill=0;" edge="1" parent="WIyWlLk6GJQsqaUBKTNV-1" source="1yajqlo2JNDMy205WkG5-24" target="1yajqlo2JNDMy205WkG5-26">
          <mxGeometry relative="1" as="geometry" />
        </mxCell>
        <mxCell id="1yajqlo2JNDMy205WkG5-186" style="edgeStyle=orthogonalEdgeStyle;rounded=0;jumpStyle=arc;orthogonalLoop=1;jettySize=auto;html=1;exitX=1;exitY=0.5;exitDx=0;exitDy=0;entryX=0;entryY=0.5;entryDx=0;entryDy=0;startArrow=none;startFill=0;endArrow=none;endFill=0;" edge="1" parent="WIyWlLk6GJQsqaUBKTNV-1" source="1yajqlo2JNDMy205WkG5-24" target="1yajqlo2JNDMy205WkG5-43">
          <mxGeometry relative="1" as="geometry" />
        </mxCell>
        <mxCell id="1yajqlo2JNDMy205WkG5-24" value="Salas " style="swimlane;fontStyle=2;align=center;verticalAlign=top;childLayout=stackLayout;horizontal=1;startSize=26;horizontalStack=0;resizeParent=1;resizeLast=0;collapsible=1;marginBottom=0;rounded=0;shadow=0;strokeWidth=1;" vertex="1" collapsed="1" parent="WIyWlLk6GJQsqaUBKTNV-1">
          <mxGeometry x="1654" y="585" width="160" height="26" as="geometry">
            <mxRectangle x="600" y="150" width="110" height="40" as="alternateBounds" />
          </mxGeometry>
        </mxCell>
        <mxCell id="1yajqlo2JNDMy205WkG5-25" value="" style="line;html=1;strokeWidth=1;align=left;verticalAlign=middle;spacingTop=-1;spacingLeft=3;spacingRight=3;rotatable=0;labelPosition=right;points=[];portConstraint=eastwest;" vertex="1" parent="1yajqlo2JNDMy205WkG5-24">
          <mxGeometry y="26" width="110" height="8" as="geometry" />
        </mxCell>
        <mxCell id="1yajqlo2JNDMy205WkG5-141" style="edgeStyle=orthogonalEdgeStyle;rounded=0;jumpStyle=arc;orthogonalLoop=1;jettySize=auto;html=1;exitX=0.5;exitY=1;exitDx=0;exitDy=0;entryX=0.5;entryY=0;entryDx=0;entryDy=0;startArrow=none;startFill=0;endArrow=none;endFill=0;" edge="1" parent="WIyWlLk6GJQsqaUBKTNV-1" source="1yajqlo2JNDMy205WkG5-26" target="1yajqlo2JNDMy205WkG5-28">
          <mxGeometry relative="1" as="geometry" />
        </mxCell>
        <mxCell id="1yajqlo2JNDMy205WkG5-26" value="Sillas" style="swimlane;fontStyle=2;align=center;verticalAlign=top;childLayout=stackLayout;horizontal=1;startSize=26;horizontalStack=0;resizeParent=1;resizeLast=0;collapsible=1;marginBottom=0;rounded=0;shadow=0;strokeWidth=1;" vertex="1" collapsed="1" parent="WIyWlLk6GJQsqaUBKTNV-1">
          <mxGeometry x="1654" y="750" width="160" height="26" as="geometry">
            <mxRectangle x="600" y="150" width="110" height="40" as="alternateBounds" />
          </mxGeometry>
        </mxCell>
        <mxCell id="1yajqlo2JNDMy205WkG5-27" value="" style="line;html=1;strokeWidth=1;align=left;verticalAlign=middle;spacingTop=-1;spacingLeft=3;spacingRight=3;rotatable=0;labelPosition=right;points=[];portConstraint=eastwest;" vertex="1" parent="1yajqlo2JNDMy205WkG5-26">
          <mxGeometry y="26" width="110" height="8" as="geometry" />
        </mxCell>
        <mxCell id="1yajqlo2JNDMy205WkG5-28" value="Tipo de silla " style="swimlane;fontStyle=2;align=center;verticalAlign=top;childLayout=stackLayout;horizontal=1;startSize=26;horizontalStack=0;resizeParent=1;resizeLast=0;collapsible=1;marginBottom=0;rounded=0;shadow=0;strokeWidth=1;" vertex="1" collapsed="1" parent="WIyWlLk6GJQsqaUBKTNV-1">
          <mxGeometry x="1654" y="950" width="160" height="26" as="geometry">
            <mxRectangle x="600" y="150" width="110" height="40" as="alternateBounds" />
          </mxGeometry>
        </mxCell>
        <mxCell id="1yajqlo2JNDMy205WkG5-29" value="" style="line;html=1;strokeWidth=1;align=left;verticalAlign=middle;spacingTop=-1;spacingLeft=3;spacingRight=3;rotatable=0;labelPosition=right;points=[];portConstraint=eastwest;" vertex="1" parent="1yajqlo2JNDMy205WkG5-28">
          <mxGeometry y="26" width="110" height="8" as="geometry" />
        </mxCell>
        <mxCell id="1yajqlo2JNDMy205WkG5-94" style="edgeStyle=orthogonalEdgeStyle;rounded=0;jumpStyle=arc;orthogonalLoop=1;jettySize=auto;html=1;exitX=0.5;exitY=0;exitDx=0;exitDy=0;entryX=0.5;entryY=1;entryDx=0;entryDy=0;startArrow=none;startFill=0;endArrow=none;endFill=0;" edge="1" parent="WIyWlLk6GJQsqaUBKTNV-1" source="1yajqlo2JNDMy205WkG5-30" target="1yajqlo2JNDMy205WkG5-18">
          <mxGeometry relative="1" as="geometry" />
        </mxCell>
        <mxCell id="1yajqlo2JNDMy205WkG5-127" value="Tiene -&amp;gt;" style="edgeLabel;html=1;align=center;verticalAlign=middle;resizable=0;points=[];rotation=90;" vertex="1" connectable="0" parent="1yajqlo2JNDMy205WkG5-94">
          <mxGeometry x="-0.0757" y="-1" relative="1" as="geometry">
            <mxPoint x="9" as="offset" />
          </mxGeometry>
        </mxCell>
        <mxCell id="1yajqlo2JNDMy205WkG5-128" value="&amp;lt;- Es realizada" style="edgeLabel;html=1;align=center;verticalAlign=middle;resizable=0;points=[];rotation=90;" vertex="1" connectable="0" parent="1yajqlo2JNDMy205WkG5-94">
          <mxGeometry x="0.1681" y="-1" relative="1" as="geometry">
            <mxPoint x="-11" y="19" as="offset" />
          </mxGeometry>
        </mxCell>
        <mxCell id="1yajqlo2JNDMy205WkG5-129" value="1" style="edgeLabel;html=1;align=center;verticalAlign=middle;resizable=0;points=[];rotation=90;" vertex="1" connectable="0" parent="1yajqlo2JNDMy205WkG5-94">
          <mxGeometry x="0.8709" relative="1" as="geometry">
            <mxPoint x="-10" y="-7" as="offset" />
          </mxGeometry>
        </mxCell>
        <mxCell id="1yajqlo2JNDMy205WkG5-130" value="0...*" style="edgeLabel;html=1;align=center;verticalAlign=middle;resizable=0;points=[];rotation=90;" vertex="1" connectable="0" parent="1yajqlo2JNDMy205WkG5-94">
          <mxGeometry x="-0.839" y="-1" relative="1" as="geometry">
            <mxPoint x="9" as="offset" />
          </mxGeometry>
        </mxCell>
        <mxCell id="1yajqlo2JNDMy205WkG5-131" style="edgeStyle=orthogonalEdgeStyle;rounded=0;jumpStyle=arc;orthogonalLoop=1;jettySize=auto;html=1;exitX=1;exitY=0.5;exitDx=0;exitDy=0;entryX=0;entryY=0.5;entryDx=0;entryDy=0;startArrow=none;startFill=0;endArrow=none;endFill=0;" edge="1" parent="WIyWlLk6GJQsqaUBKTNV-1" source="1yajqlo2JNDMy205WkG5-30" target="1yajqlo2JNDMy205WkG5-20">
          <mxGeometry relative="1" as="geometry">
            <Array as="points">
              <mxPoint x="910" y="598" />
              <mxPoint x="910" y="598" />
            </Array>
          </mxGeometry>
        </mxCell>
        <mxCell id="1yajqlo2JNDMy205WkG5-143" value="Vende -&amp;gt;" style="edgeLabel;html=1;align=center;verticalAlign=middle;resizable=0;points=[];" vertex="1" connectable="0" parent="1yajqlo2JNDMy205WkG5-131">
          <mxGeometry x="-0.1467" y="1" relative="1" as="geometry">
            <mxPoint x="10" y="-13" as="offset" />
          </mxGeometry>
        </mxCell>
        <mxCell id="1yajqlo2JNDMy205WkG5-144" value="&amp;lt;- Son generados en" style="edgeLabel;html=1;align=center;verticalAlign=middle;resizable=0;points=[];" vertex="1" connectable="0" parent="1yajqlo2JNDMy205WkG5-131">
          <mxGeometry x="-0.1467" y="-3" relative="1" as="geometry">
            <mxPoint x="10" y="9" as="offset" />
          </mxGeometry>
        </mxCell>
        <mxCell id="1yajqlo2JNDMy205WkG5-147" value="0...*" style="edgeLabel;html=1;align=center;verticalAlign=middle;resizable=0;points=[];" vertex="1" connectable="0" parent="1yajqlo2JNDMy205WkG5-131">
          <mxGeometry x="0.8636" y="1" relative="1" as="geometry">
            <mxPoint y="-13" as="offset" />
          </mxGeometry>
        </mxCell>
        <mxCell id="1yajqlo2JNDMy205WkG5-148" value="1" style="edgeLabel;html=1;align=center;verticalAlign=middle;resizable=0;points=[];" vertex="1" connectable="0" parent="1yajqlo2JNDMy205WkG5-131">
          <mxGeometry x="-0.8921" y="1" relative="1" as="geometry">
            <mxPoint y="13" as="offset" />
          </mxGeometry>
        </mxCell>
        <mxCell id="1yajqlo2JNDMy205WkG5-30" value="Venta" style="swimlane;fontStyle=2;align=center;verticalAlign=top;childLayout=stackLayout;horizontal=1;startSize=26;horizontalStack=0;resizeParent=1;resizeLast=0;collapsible=1;marginBottom=0;rounded=0;shadow=0;strokeWidth=1;" vertex="1" collapsed="1" parent="WIyWlLk6GJQsqaUBKTNV-1">
          <mxGeometry x="650" y="585" width="160" height="26" as="geometry">
            <mxRectangle x="840" y="160" width="110" height="40" as="alternateBounds" />
          </mxGeometry>
        </mxCell>
        <mxCell id="1yajqlo2JNDMy205WkG5-31" value="" style="line;html=1;strokeWidth=1;align=left;verticalAlign=middle;spacingTop=-1;spacingLeft=3;spacingRight=3;rotatable=0;labelPosition=right;points=[];portConstraint=eastwest;" vertex="1" parent="1yajqlo2JNDMy205WkG5-30">
          <mxGeometry y="26" width="110" height="8" as="geometry" />
        </mxCell>
        <mxCell id="1yajqlo2JNDMy205WkG5-178" style="edgeStyle=orthogonalEdgeStyle;rounded=0;jumpStyle=arc;orthogonalLoop=1;jettySize=auto;html=1;exitX=1;exitY=0.5;exitDx=0;exitDy=0;startArrow=none;startFill=0;endArrow=none;endFill=0;" edge="1" parent="WIyWlLk6GJQsqaUBKTNV-1" source="1yajqlo2JNDMy205WkG5-32" target="1yajqlo2JNDMy205WkG5-24">
          <mxGeometry relative="1" as="geometry" />
        </mxCell>
        <mxCell id="1yajqlo2JNDMy205WkG5-32" value="Pelicula" style="swimlane;fontStyle=2;align=center;verticalAlign=top;childLayout=stackLayout;horizontal=1;startSize=26;horizontalStack=0;resizeParent=1;resizeLast=0;collapsible=1;marginBottom=0;rounded=0;shadow=0;strokeWidth=1;" vertex="1" collapsed="1" parent="WIyWlLk6GJQsqaUBKTNV-1">
          <mxGeometry x="1370" y="585" width="160" height="26" as="geometry">
            <mxRectangle x="840" y="160" width="110" height="40" as="alternateBounds" />
          </mxGeometry>
        </mxCell>
        <mxCell id="1yajqlo2JNDMy205WkG5-33" value="" style="line;html=1;strokeWidth=1;align=left;verticalAlign=middle;spacingTop=-1;spacingLeft=3;spacingRight=3;rotatable=0;labelPosition=right;points=[];portConstraint=eastwest;" vertex="1" parent="1yajqlo2JNDMy205WkG5-32">
          <mxGeometry y="26" width="110" height="8" as="geometry" />
        </mxCell>
        <mxCell id="1yajqlo2JNDMy205WkG5-91" style="edgeStyle=orthogonalEdgeStyle;rounded=0;jumpStyle=arc;orthogonalLoop=1;jettySize=auto;html=1;startArrow=none;startFill=0;endArrow=none;endFill=0;exitX=1;exitY=0.5;exitDx=0;exitDy=0;" edge="1" parent="WIyWlLk6GJQsqaUBKTNV-1" source="1yajqlo2JNDMy205WkG5-34" target="1yajqlo2JNDMy205WkG5-46">
          <mxGeometry relative="1" as="geometry">
            <mxPoint x="870" y="133" as="sourcePoint" />
          </mxGeometry>
        </mxCell>
        <mxCell id="1yajqlo2JNDMy205WkG5-112" value="Posee -&amp;gt;" style="edgeLabel;html=1;align=center;verticalAlign=middle;resizable=0;points=[];" vertex="1" connectable="0" parent="1yajqlo2JNDMy205WkG5-91">
          <mxGeometry x="-0.0567" y="2" relative="1" as="geometry">
            <mxPoint x="5" y="-11" as="offset" />
          </mxGeometry>
        </mxCell>
        <mxCell id="1yajqlo2JNDMy205WkG5-113" value="&amp;lt;- Puede tenerlo" style="edgeLabel;html=1;align=center;verticalAlign=middle;resizable=0;points=[];" vertex="1" connectable="0" parent="1yajqlo2JNDMy205WkG5-91">
          <mxGeometry x="-0.04" relative="1" as="geometry">
            <mxPoint x="-10" y="7" as="offset" />
          </mxGeometry>
        </mxCell>
        <mxCell id="1yajqlo2JNDMy205WkG5-114" value="1" style="edgeLabel;html=1;align=center;verticalAlign=middle;resizable=0;points=[];" vertex="1" connectable="0" parent="1yajqlo2JNDMy205WkG5-91">
          <mxGeometry x="0.9499" relative="1" as="geometry">
            <mxPoint y="-13" as="offset" />
          </mxGeometry>
        </mxCell>
        <mxCell id="1yajqlo2JNDMy205WkG5-115" value="0..*" style="edgeLabel;html=1;align=center;verticalAlign=middle;resizable=0;points=[];" vertex="1" connectable="0" parent="1yajqlo2JNDMy205WkG5-91">
          <mxGeometry x="-0.9631" y="2" relative="1" as="geometry">
            <mxPoint x="10" y="9" as="offset" />
          </mxGeometry>
        </mxCell>
        <mxCell id="1yajqlo2JNDMy205WkG5-34" value="Cliente " style="swimlane;fontStyle=2;align=center;verticalAlign=top;childLayout=stackLayout;horizontal=1;startSize=26;horizontalStack=0;resizeParent=1;resizeLast=0;collapsible=1;marginBottom=0;rounded=0;shadow=0;strokeWidth=1;" vertex="1" collapsed="1" parent="WIyWlLk6GJQsqaUBKTNV-1">
          <mxGeometry x="690" y="120" width="160" height="26" as="geometry">
            <mxRectangle x="840" y="160" width="110" height="40" as="alternateBounds" />
          </mxGeometry>
        </mxCell>
        <mxCell id="1yajqlo2JNDMy205WkG5-35" value="" style="line;html=1;strokeWidth=1;align=left;verticalAlign=middle;spacingTop=-1;spacingLeft=3;spacingRight=3;rotatable=0;labelPosition=right;points=[];portConstraint=eastwest;" vertex="1" parent="1yajqlo2JNDMy205WkG5-34">
          <mxGeometry y="26" width="110" height="8" as="geometry" />
        </mxCell>
        <mxCell id="1yajqlo2JNDMy205WkG5-90" style="edgeStyle=orthogonalEdgeStyle;rounded=0;jumpStyle=arc;orthogonalLoop=1;jettySize=auto;html=1;exitX=0.5;exitY=0;exitDx=0;exitDy=0;startArrow=none;startFill=0;endArrow=none;endFill=0;entryX=0.5;entryY=1;entryDx=0;entryDy=0;" edge="1" parent="WIyWlLk6GJQsqaUBKTNV-1" source="1yajqlo2JNDMy205WkG5-36" target="1yajqlo2JNDMy205WkG5-34">
          <mxGeometry relative="1" as="geometry">
            <mxPoint x="770" y="170" as="targetPoint" />
          </mxGeometry>
        </mxCell>
        <mxCell id="1yajqlo2JNDMy205WkG5-102" value="Tiene-&amp;gt;" style="edgeLabel;html=1;align=center;verticalAlign=middle;resizable=0;points=[];" vertex="1" connectable="0" parent="1yajqlo2JNDMy205WkG5-90">
          <mxGeometry x="-0.0616" y="-1" relative="1" as="geometry">
            <mxPoint x="-18" y="-15" as="offset" />
          </mxGeometry>
        </mxCell>
        <mxCell id="1yajqlo2JNDMy205WkG5-104" value="0...*" style="edgeLabel;html=1;align=center;verticalAlign=middle;resizable=0;points=[];rotation=90;" vertex="1" connectable="0" parent="1yajqlo2JNDMy205WkG5-90">
          <mxGeometry x="-0.9514" relative="1" as="geometry">
            <mxPoint x="9" y="-6" as="offset" />
          </mxGeometry>
        </mxCell>
        <mxCell id="1yajqlo2JNDMy205WkG5-105" value="1" style="edgeLabel;html=1;align=center;verticalAlign=middle;resizable=0;points=[];rotation=90;" vertex="1" connectable="0" parent="1yajqlo2JNDMy205WkG5-90">
          <mxGeometry x="0.9395" y="-1" relative="1" as="geometry">
            <mxPoint x="-11" y="-8" as="offset" />
          </mxGeometry>
        </mxCell>
        <mxCell id="1yajqlo2JNDMy205WkG5-36" value="Novedades" style="swimlane;fontStyle=2;align=center;verticalAlign=top;childLayout=stackLayout;horizontal=1;startSize=26;horizontalStack=0;resizeParent=1;resizeLast=0;collapsible=1;marginBottom=0;rounded=0;shadow=0;strokeWidth=1;" vertex="1" collapsed="1" parent="WIyWlLk6GJQsqaUBKTNV-1">
          <mxGeometry x="1001" y="246" width="160" height="26" as="geometry">
            <mxRectangle x="600" y="150" width="110" height="40" as="alternateBounds" />
          </mxGeometry>
        </mxCell>
        <mxCell id="1yajqlo2JNDMy205WkG5-37" value="" style="line;html=1;strokeWidth=1;align=left;verticalAlign=middle;spacingTop=-1;spacingLeft=3;spacingRight=3;rotatable=0;labelPosition=right;points=[];portConstraint=eastwest;" vertex="1" parent="1yajqlo2JNDMy205WkG5-36">
          <mxGeometry y="26" width="110" height="8" as="geometry" />
        </mxCell>
        <mxCell id="1yajqlo2JNDMy205WkG5-134" style="edgeStyle=orthogonalEdgeStyle;rounded=0;jumpStyle=arc;orthogonalLoop=1;jettySize=auto;html=1;exitX=1;exitY=0.5;exitDx=0;exitDy=0;entryX=0;entryY=0.5;entryDx=0;entryDy=0;startArrow=none;startFill=0;endArrow=none;endFill=0;" edge="1" parent="WIyWlLk6GJQsqaUBKTNV-1" source="1yajqlo2JNDMy205WkG5-38" target="1yajqlo2JNDMy205WkG5-56">
          <mxGeometry relative="1" as="geometry" />
        </mxCell>
        <mxCell id="1yajqlo2JNDMy205WkG5-160" value="Tiene -&amp;gt;" style="edgeLabel;html=1;align=center;verticalAlign=middle;resizable=0;points=[];" vertex="1" connectable="0" parent="1yajqlo2JNDMy205WkG5-134">
          <mxGeometry x="-0.1812" y="-1" relative="1" as="geometry">
            <mxPoint x="14" y="-14" as="offset" />
          </mxGeometry>
        </mxCell>
        <mxCell id="1yajqlo2JNDMy205WkG5-163" value="&amp;lt;- Puede estar&amp;nbsp;" style="edgeLabel;html=1;align=center;verticalAlign=middle;resizable=0;points=[];" vertex="1" connectable="0" parent="1yajqlo2JNDMy205WkG5-134">
          <mxGeometry x="-0.1371" y="-1" relative="1" as="geometry">
            <mxPoint x="10" y="6" as="offset" />
          </mxGeometry>
        </mxCell>
        <mxCell id="1yajqlo2JNDMy205WkG5-164" value="1" style="edgeLabel;html=1;align=center;verticalAlign=middle;resizable=0;points=[];" vertex="1" connectable="0" parent="1yajqlo2JNDMy205WkG5-134">
          <mxGeometry x="0.865" y="1" relative="1" as="geometry">
            <mxPoint x="4" y="-12" as="offset" />
          </mxGeometry>
        </mxCell>
        <mxCell id="1yajqlo2JNDMy205WkG5-165" value="0...*" style="edgeLabel;html=1;align=center;verticalAlign=middle;resizable=0;points=[];" vertex="1" connectable="0" parent="1yajqlo2JNDMy205WkG5-134">
          <mxGeometry x="-0.8907" relative="1" as="geometry">
            <mxPoint y="7" as="offset" />
          </mxGeometry>
        </mxCell>
        <mxCell id="1yajqlo2JNDMy205WkG5-38" value="Reclamación mecato" style="swimlane;fontStyle=2;align=center;verticalAlign=top;childLayout=stackLayout;horizontal=1;startSize=26;horizontalStack=0;resizeParent=1;resizeLast=0;collapsible=1;marginBottom=0;rounded=0;shadow=0;strokeWidth=1;" vertex="1" collapsed="1" parent="WIyWlLk6GJQsqaUBKTNV-1">
          <mxGeometry x="280" y="830" width="160" height="26" as="geometry">
            <mxRectangle x="840" y="160" width="110" height="40" as="alternateBounds" />
          </mxGeometry>
        </mxCell>
        <mxCell id="1yajqlo2JNDMy205WkG5-39" value="" style="line;html=1;strokeWidth=1;align=left;verticalAlign=middle;spacingTop=-1;spacingLeft=3;spacingRight=3;rotatable=0;labelPosition=right;points=[];portConstraint=eastwest;" vertex="1" parent="1yajqlo2JNDMy205WkG5-38">
          <mxGeometry y="26" width="110" height="8" as="geometry" />
        </mxCell>
        <mxCell id="1yajqlo2JNDMy205WkG5-43" value="Estado de sala" style="swimlane;fontStyle=2;align=center;verticalAlign=top;childLayout=stackLayout;horizontal=1;startSize=26;horizontalStack=0;resizeParent=1;resizeLast=0;collapsible=1;marginBottom=0;rounded=0;shadow=0;strokeWidth=1;" vertex="1" collapsed="1" parent="WIyWlLk6GJQsqaUBKTNV-1">
          <mxGeometry x="1988" y="585" width="160" height="26" as="geometry">
            <mxRectangle x="600" y="150" width="110" height="40" as="alternateBounds" />
          </mxGeometry>
        </mxCell>
        <mxCell id="1yajqlo2JNDMy205WkG5-44" value="" style="line;html=1;strokeWidth=1;align=left;verticalAlign=middle;spacingTop=-1;spacingLeft=3;spacingRight=3;rotatable=0;labelPosition=right;points=[];portConstraint=eastwest;" vertex="1" parent="1yajqlo2JNDMy205WkG5-43">
          <mxGeometry y="26" width="110" height="8" as="geometry" />
        </mxCell>
        <mxCell id="1yajqlo2JNDMy205WkG5-46" value="Tipo de identificación " style="swimlane;fontStyle=2;align=center;verticalAlign=top;childLayout=stackLayout;horizontal=1;startSize=26;horizontalStack=0;resizeParent=1;resizeLast=0;collapsible=1;marginBottom=0;rounded=0;shadow=0;strokeWidth=1;" vertex="1" collapsed="1" parent="WIyWlLk6GJQsqaUBKTNV-1">
          <mxGeometry x="1370" y="120" width="160" height="26" as="geometry">
            <mxRectangle x="840" y="160" width="110" height="40" as="alternateBounds" />
          </mxGeometry>
        </mxCell>
        <mxCell id="1yajqlo2JNDMy205WkG5-47" value="" style="line;html=1;strokeWidth=1;align=left;verticalAlign=middle;spacingTop=-1;spacingLeft=3;spacingRight=3;rotatable=0;labelPosition=right;points=[];portConstraint=eastwest;" vertex="1" parent="1yajqlo2JNDMy205WkG5-46">
          <mxGeometry y="26" width="110" height="8" as="geometry" />
        </mxCell>
        <mxCell id="1yajqlo2JNDMy205WkG5-49" style="edgeStyle=none;shape=link;rounded=0;orthogonalLoop=1;jettySize=auto;html=1;exitX=0.75;exitY=0;exitDx=0;exitDy=0;endArrow=openAsync;endFill=0;" edge="1" parent="WIyWlLk6GJQsqaUBKTNV-1" source="1yajqlo2JNDMy205WkG5-24" target="1yajqlo2JNDMy205WkG5-24">
          <mxGeometry relative="1" as="geometry" />
        </mxCell>
        <mxCell id="1yajqlo2JNDMy205WkG5-136" style="edgeStyle=orthogonalEdgeStyle;rounded=0;jumpStyle=arc;orthogonalLoop=1;jettySize=auto;html=1;exitX=0.5;exitY=0;exitDx=0;exitDy=0;entryX=0.5;entryY=1;entryDx=0;entryDy=0;startArrow=none;startFill=0;endArrow=none;endFill=0;" edge="1" parent="WIyWlLk6GJQsqaUBKTNV-1" source="1yajqlo2JNDMy205WkG5-53" target="1yajqlo2JNDMy205WkG5-20">
          <mxGeometry relative="1" as="geometry" />
        </mxCell>
        <mxCell id="1yajqlo2JNDMy205WkG5-155" value="Tiene -&amp;gt;" style="edgeLabel;html=1;align=center;verticalAlign=middle;resizable=0;points=[];rotation=90;" vertex="1" connectable="0" parent="1yajqlo2JNDMy205WkG5-136">
          <mxGeometry x="-0.1107" y="-1" relative="1" as="geometry">
            <mxPoint x="9" as="offset" />
          </mxGeometry>
        </mxCell>
        <mxCell id="1yajqlo2JNDMy205WkG5-156" value="&amp;lt;- Pertenecen" style="edgeLabel;html=1;align=center;verticalAlign=middle;resizable=0;points=[];rotation=90;" vertex="1" connectable="0" parent="1yajqlo2JNDMy205WkG5-136">
          <mxGeometry x="-0.2854" y="1" relative="1" as="geometry">
            <mxPoint x="-9" y="-22" as="offset" />
          </mxGeometry>
        </mxCell>
        <mxCell id="1yajqlo2JNDMy205WkG5-157" value="1" style="edgeLabel;html=1;align=center;verticalAlign=middle;resizable=0;points=[];rotation=90;" vertex="1" connectable="0" parent="1yajqlo2JNDMy205WkG5-136">
          <mxGeometry x="0.8422" y="-2" relative="1" as="geometry">
            <mxPoint x="-12" as="offset" />
          </mxGeometry>
        </mxCell>
        <mxCell id="1yajqlo2JNDMy205WkG5-158" value="1...*" style="edgeLabel;html=1;align=center;verticalAlign=middle;resizable=0;points=[];rotation=90;" vertex="1" connectable="0" parent="1yajqlo2JNDMy205WkG5-136">
          <mxGeometry x="-0.889" relative="1" as="geometry">
            <mxPoint x="10" as="offset" />
          </mxGeometry>
        </mxCell>
        <mxCell id="1yajqlo2JNDMy205WkG5-53" value="Reclamacion tiquetes" style="swimlane;fontStyle=2;align=center;verticalAlign=top;childLayout=stackLayout;horizontal=1;startSize=26;horizontalStack=0;resizeParent=1;resizeLast=0;collapsible=1;marginBottom=0;rounded=0;shadow=0;strokeWidth=1;" vertex="1" collapsed="1" parent="WIyWlLk6GJQsqaUBKTNV-1">
          <mxGeometry x="1020" y="830" width="160" height="26" as="geometry">
            <mxRectangle x="840" y="160" width="110" height="40" as="alternateBounds" />
          </mxGeometry>
        </mxCell>
        <mxCell id="1yajqlo2JNDMy205WkG5-54" value="" style="line;html=1;strokeWidth=1;align=left;verticalAlign=middle;spacingTop=-1;spacingLeft=3;spacingRight=3;rotatable=0;labelPosition=right;points=[];portConstraint=eastwest;" vertex="1" parent="1yajqlo2JNDMy205WkG5-53">
          <mxGeometry y="26" width="110" height="8" as="geometry" />
        </mxCell>
        <mxCell id="1yajqlo2JNDMy205WkG5-135" style="edgeStyle=orthogonalEdgeStyle;rounded=0;jumpStyle=arc;orthogonalLoop=1;jettySize=auto;html=1;exitX=1;exitY=0.5;exitDx=0;exitDy=0;entryX=0;entryY=0.5;entryDx=0;entryDy=0;startArrow=none;startFill=0;endArrow=none;endFill=0;" edge="1" parent="WIyWlLk6GJQsqaUBKTNV-1" source="1yajqlo2JNDMy205WkG5-56" target="1yajqlo2JNDMy205WkG5-53">
          <mxGeometry relative="1" as="geometry">
            <Array as="points">
              <mxPoint x="920" y="843" />
              <mxPoint x="920" y="843" />
            </Array>
          </mxGeometry>
        </mxCell>
        <mxCell id="1yajqlo2JNDMy205WkG5-159" value="&amp;lt;- Tiene" style="edgeLabel;html=1;align=center;verticalAlign=middle;resizable=0;points=[];" vertex="1" connectable="0" parent="1yajqlo2JNDMy205WkG5-135">
          <mxGeometry x="0.1514" y="-3" relative="1" as="geometry">
            <mxPoint x="-11" y="-16" as="offset" />
          </mxGeometry>
        </mxCell>
        <mxCell id="1yajqlo2JNDMy205WkG5-162" value="Puede estar -&amp;gt;" style="edgeLabel;html=1;align=center;verticalAlign=middle;resizable=0;points=[];" vertex="1" connectable="0" parent="1yajqlo2JNDMy205WkG5-135">
          <mxGeometry x="0.0907" y="1" relative="1" as="geometry">
            <mxPoint y="8" as="offset" />
          </mxGeometry>
        </mxCell>
        <mxCell id="1yajqlo2JNDMy205WkG5-166" value="0..*" style="edgeLabel;html=1;align=center;verticalAlign=middle;resizable=0;points=[];" vertex="1" connectable="0" parent="1yajqlo2JNDMy205WkG5-135">
          <mxGeometry x="0.8609" relative="1" as="geometry">
            <mxPoint x="4" y="7" as="offset" />
          </mxGeometry>
        </mxCell>
        <mxCell id="1yajqlo2JNDMy205WkG5-168" value="1" style="edgeLabel;html=1;align=center;verticalAlign=middle;resizable=0;points=[];" vertex="1" connectable="0" parent="1yajqlo2JNDMy205WkG5-135">
          <mxGeometry x="-0.812" y="-2" relative="1" as="geometry">
            <mxPoint x="-10" y="-15" as="offset" />
          </mxGeometry>
        </mxCell>
        <mxCell id="1yajqlo2JNDMy205WkG5-56" value="Estado reclamacion" style="swimlane;fontStyle=2;align=center;verticalAlign=top;childLayout=stackLayout;horizontal=1;startSize=26;horizontalStack=0;resizeParent=1;resizeLast=0;collapsible=1;marginBottom=0;rounded=0;shadow=0;strokeWidth=1;" vertex="1" collapsed="1" parent="WIyWlLk6GJQsqaUBKTNV-1">
          <mxGeometry x="650" y="830" width="160" height="26" as="geometry">
            <mxRectangle x="840" y="160" width="110" height="40" as="alternateBounds" />
          </mxGeometry>
        </mxCell>
        <mxCell id="1yajqlo2JNDMy205WkG5-57" value="" style="line;html=1;strokeWidth=1;align=left;verticalAlign=middle;spacingTop=-1;spacingLeft=3;spacingRight=3;rotatable=0;labelPosition=right;points=[];portConstraint=eastwest;" vertex="1" parent="1yajqlo2JNDMy205WkG5-56">
          <mxGeometry y="26" width="110" height="8" as="geometry" />
        </mxCell>
        <mxCell id="1yajqlo2JNDMy205WkG5-93" style="edgeStyle=orthogonalEdgeStyle;rounded=0;jumpStyle=arc;orthogonalLoop=1;jettySize=auto;html=1;exitX=0.5;exitY=0;exitDx=0;exitDy=0;entryX=0.5;entryY=1;entryDx=0;entryDy=0;startArrow=none;startFill=0;endArrow=none;endFill=0;" edge="1" parent="WIyWlLk6GJQsqaUBKTNV-1" source="1yajqlo2JNDMy205WkG5-59" target="1yajqlo2JNDMy205WkG5-46">
          <mxGeometry relative="1" as="geometry" />
        </mxCell>
        <mxCell id="1yajqlo2JNDMy205WkG5-117" value="Posee -&amp;gt;" style="edgeLabel;html=1;align=center;verticalAlign=middle;resizable=0;points=[];rotation=-92;" vertex="1" connectable="0" parent="1yajqlo2JNDMy205WkG5-93">
          <mxGeometry x="0.2522" y="1" relative="1" as="geometry">
            <mxPoint x="-9" y="26" as="offset" />
          </mxGeometry>
        </mxCell>
        <mxCell id="1yajqlo2JNDMy205WkG5-118" value="&amp;nbsp;puede tenerlo -&amp;gt;" style="edgeLabel;html=1;align=center;verticalAlign=middle;resizable=0;points=[];rotation=90;" vertex="1" connectable="0" parent="1yajqlo2JNDMy205WkG5-93">
          <mxGeometry x="0.1333" y="1" relative="1" as="geometry">
            <mxPoint x="11" y="23" as="offset" />
          </mxGeometry>
        </mxCell>
        <mxCell id="1yajqlo2JNDMy205WkG5-119" value="1" style="edgeLabel;html=1;align=center;verticalAlign=middle;resizable=0;points=[];rotation=90;" vertex="1" connectable="0" parent="1yajqlo2JNDMy205WkG5-93">
          <mxGeometry x="0.9137" y="2" relative="1" as="geometry">
            <mxPoint x="-8" y="-7" as="offset" />
          </mxGeometry>
        </mxCell>
        <mxCell id="1yajqlo2JNDMy205WkG5-121" value="0...*" style="edgeLabel;html=1;align=center;verticalAlign=middle;resizable=0;points=[];rotation=90;" vertex="1" connectable="0" parent="1yajqlo2JNDMy205WkG5-93">
          <mxGeometry x="-0.8329" y="-2" relative="1" as="geometry">
            <mxPoint x="8" as="offset" />
          </mxGeometry>
        </mxCell>
        <mxCell id="1yajqlo2JNDMy205WkG5-59" value="Empleado" style="swimlane;fontStyle=2;align=center;verticalAlign=top;childLayout=stackLayout;horizontal=1;startSize=26;horizontalStack=0;resizeParent=1;resizeLast=0;collapsible=1;marginBottom=0;rounded=0;shadow=0;strokeWidth=1;" vertex="1" collapsed="1" parent="WIyWlLk6GJQsqaUBKTNV-1">
          <mxGeometry x="1370" y="380" width="160" height="26" as="geometry">
            <mxRectangle x="840" y="160" width="110" height="40" as="alternateBounds" />
          </mxGeometry>
        </mxCell>
        <mxCell id="1yajqlo2JNDMy205WkG5-60" value="" style="line;html=1;strokeWidth=1;align=left;verticalAlign=middle;spacingTop=-1;spacingLeft=3;spacingRight=3;rotatable=0;labelPosition=right;points=[];portConstraint=eastwest;" vertex="1" parent="1yajqlo2JNDMy205WkG5-59">
          <mxGeometry y="26" width="110" height="8" as="geometry" />
        </mxCell>
        <mxCell id="1yajqlo2JNDMy205WkG5-103" value="&amp;lt;- Se genera de&amp;nbsp;" style="edgeLabel;html=1;align=center;verticalAlign=middle;resizable=0;points=[];" vertex="1" connectable="0" parent="WIyWlLk6GJQsqaUBKTNV-1">
          <mxGeometry x="920.0024242424245" y="190.03030303030312" as="geometry">
            <mxPoint x="1" y="16" as="offset" />
          </mxGeometry>
        </mxCell>
      </root>
    </mxGraphModel>
  </diagram>
</mxfile>
